<svg width="720" height="900" viewBox="0 0 720 900" fill="none" xmlns="http://www.w3.org/2000/svg">
<rect width="720" height="900" fill="#EAE2D6"/>
<circle cx="620" cy="110" r="260" fill="#5A1E2D" fill-opacity=".14"/>
<circle cx="70" cy="820" r="290" fill="#234B35" fill-opacity=".16"/>
<circle cx="360" cy="318" r="142" fill="#B17D64"/>
<path d="M220 296C241 132 490 144 505 306C431 260 295 260 220 296Z" fill="#332825"/>
<path d="M134 900C149 636 245 527 360 527C475 527 571 636 586 900H134Z" fill="#253E30"/>
<path d="M290 485C312 520 408 520 430 485V576C401 611 319 611 290 576V485Z" fill="#B17D64"/>
<path d="M311 345C326 360 394 360 409 345" stroke="#332825" stroke-width="5" stroke-linecap="round"/>
</svg>
